<svg width="47" height="46" viewBox="0 0 47 46" fill="none" xmlns="http://www.w3.org/2000/svg">
<circle cx="23.5" cy="23" r="23" fill="#F0939E"/>
<g clip-path="url(#clip0_152_2910)">
<path d="M26.81 19.6902C29.6106 22.4938 29.5722 26.9886 26.8268 29.7491C26.8217 29.7548 26.8156 29.7609 26.81 29.7665L23.66 32.9165C20.8817 35.6948 16.3616 35.6944 13.5837 32.9165C10.8054 30.1387 10.8054 25.618 13.5837 22.8402L15.3231 21.1009C15.7843 20.6396 16.5786 20.9462 16.6025 21.598C16.6328 22.4288 16.7818 23.2634 17.0567 24.0693C17.1498 24.3422 17.0833 24.6441 16.8794 24.848L16.2659 25.4615C14.9522 26.7752 14.911 28.9143 16.2118 30.2409C17.5254 31.5805 19.6845 31.5885 21.0082 30.2648L24.1582 27.1152C25.4797 25.7938 25.4742 23.6579 24.1582 22.3419C23.9848 22.1688 23.81 22.0343 23.6735 21.9403C23.5769 21.874 23.4972 21.786 23.4407 21.6834C23.3841 21.5808 23.3524 21.4664 23.3479 21.3494C23.3293 20.854 23.5048 20.3436 23.8962 19.9522L24.8831 18.9653C25.1419 18.7065 25.5479 18.6747 25.848 18.8841C26.1917 19.1241 26.5136 19.3938 26.81 19.6902ZM33.4163 13.0836C30.6384 10.3057 26.1183 10.3053 23.34 13.0836L20.19 16.2336C20.1844 16.2392 20.1783 16.2453 20.1732 16.2509C17.4279 19.0115 17.3894 23.5063 20.19 26.3098C20.4864 26.6062 20.8083 26.8759 21.152 27.1159C21.4521 27.3253 21.8581 27.2935 22.1168 27.0347L23.1037 26.0478C23.4951 25.6564 23.6706 25.146 23.6521 24.6506C23.6476 24.5336 23.6158 24.4192 23.5593 24.3166C23.5027 24.214 23.423 24.126 23.3264 24.0597C23.1899 23.9657 23.0152 23.8312 22.8417 23.6581C21.5258 22.3421 21.5203 20.2062 22.8417 18.8848L25.9917 15.7352C27.3154 14.4115 29.4745 14.4195 30.7882 15.7591C32.089 17.0857 32.0478 19.2248 30.7341 20.5385L30.1206 21.152C29.9167 21.3559 29.8502 21.6578 29.9433 21.9307C30.2181 22.7366 30.3671 23.5712 30.3975 24.402C30.4214 25.0538 31.2156 25.3604 31.6769 24.8991L33.4162 23.1598C36.1946 20.382 36.1946 15.8614 33.4163 13.0836Z" fill="white"/>
</g>
<defs>
<clipPath id="clip0_152_2910">
<rect width="24" height="24" fill="white" transform="translate(11.5 11)"/>
</clipPath>
</defs>
</svg>
