<svg width="46" height="46" viewBox="0 0 46 46" fill="none" xmlns="http://www.w3.org/2000/svg">
<circle cx="23" cy="23" r="23" fill="#F0939E"/>
<path d="M34.9937 22.0163C34.9937 22.7924 34.3687 23.4003 33.6603 23.4003H32.3268L32.356 30.3076C32.3643 31.8382 31.1684 33.08 29.6891 33.08H16.338C14.867 33.08 13.6711 31.8426 13.6711 30.3205V23.4003H12.3334C11.5834 23.4003 11 22.7967 11 22.0163C11 21.6282 11.125 21.2833 11.4167 20.9815L22.1009 11.3449C22.3926 11.0431 22.726 11 23.0177 11C23.3094 11 23.6427 11.0862 23.8928 11.3018L28.3348 15.3418V13.7595C28.3348 12.9963 28.9307 12.3797 29.6683 12.3797H31.0017C31.7393 12.3797 32.3351 12.9963 32.3351 13.7595V18.9766L34.5353 20.9772C34.8687 21.279 35.0354 21.6239 34.9937 22.012V22.0163ZM21.3342 19.2784C20.78 19.2784 20.3341 19.7397 20.3341 20.3132V23.7625C20.3341 24.336 20.78 24.7973 21.3342 24.7973H24.6678C25.222 24.7973 25.6679 24.336 25.6679 23.7625V20.3132C25.6679 19.7397 25.222 19.2784 24.6678 19.2784H21.3342Z" fill="white"/>
</svg>
