<svg width="47" height="46" viewBox="0 0 47 46" fill="none" xmlns="http://www.w3.org/2000/svg">
<circle cx="23.5" cy="23" r="23" fill="#F0939E"/>
<g clip-path="url(#clip0_152_2904)">
<path d="M17.5 11C15.8453 11 14.5 12.3453 14.5 14V32C14.5 33.6547 15.8453 35 17.5 35H29.5C31.1547 35 32.5 33.6547 32.5 32V18.5H26.5C25.6703 18.5 25 17.8297 25 17V11H17.5ZM26.5 11V17H32.5L26.5 11ZM24.625 21.875V26.6609L26.0781 25.2078C26.5188 24.7672 27.2312 24.7672 27.6672 25.2078C28.1031 25.6484 28.1078 26.3609 27.6672 26.7969L24.2922 30.1719C23.8516 30.6125 23.1391 30.6125 22.7031 30.1719L19.3281 26.7969C18.8875 26.3562 18.8875 25.6438 19.3281 25.2078C19.7688 24.7719 20.4812 24.7672 20.9172 25.2078L22.3703 26.6609V21.875C22.3703 21.2516 22.8719 20.75 23.4953 20.75C24.1187 20.75 24.6203 21.2516 24.6203 21.875H24.625Z" fill="#FAFBFD"/>
</g>
<defs>
<clipPath id="clip0_152_2904">
<rect width="18" height="24" fill="white" transform="translate(14.5 11)"/>
</clipPath>
</defs>
</svg>
