<svg width="21" height="102" viewBox="0 0 21 102" fill="none" xmlns="http://www.w3.org/2000/svg">
<path d="M16.6588 4.76401C5.88768 19.1826 -9.53465 58.5898 14.9449 100.87" stroke="white" stroke-dasharray="2 2"/>
<path d="M18.1196 7.67936L18.6204 3.2046L14.1457 2.70378" stroke="white" stroke-linecap="round" stroke-dasharray="6 6"/>
<path d="M9.46687 50.6659C9.6741 51.1632 9.78672 51.7042 9.78683 52.2622L9.28683 52.2623C9.28687 52.4984 9.26403 52.7383 9.21635 52.9796C9.16867 53.2208 9.09854 53.4514 9.0087 53.6697L9.47107 53.86C9.2587 54.376 8.94875 54.8335 8.56793 55.2146L8.21426 54.8611C7.87339 55.2022 7.46793 55.4739 7.02281 55.6594L7.21514 56.1209C6.71785 56.3281 6.17684 56.4408 5.61881 56.4409L5.61872 55.9409C5.38264 55.9409 5.14273 55.9181 4.90149 55.8704C4.66024 55.8227 4.42968 55.7526 4.21137 55.6627L4.02108 56.1251C3.50505 55.9127 3.04755 55.6028 2.66647 55.222L3.01991 54.8683C2.67881 54.5274 2.40716 54.122 2.22167 53.6769L1.76014 53.8692C1.55291 53.3719 1.44029 52.8309 1.44018 52.2729L1.94018 52.2728C1.94014 52.0367 1.96298 51.7968 2.01066 51.5555C2.05834 51.3143 2.12847 51.0837 2.21831 50.8654L1.75594 50.6751C1.96831 50.1591 2.27826 49.7016 2.65908 49.3205L3.01275 49.6739C3.35362 49.3329 3.75908 49.0612 4.2042 48.8757L4.01187 48.4142C4.50916 48.207 5.05017 48.0943 5.60819 48.0942L5.60829 48.5942C5.84437 48.5942 6.08428 48.617 6.32552 48.6647C6.56677 48.7124 6.79733 48.7825 7.01564 48.8724L7.20593 48.41C7.72196 48.6224 8.17946 48.9323 8.56054 49.3131L8.2071 49.6668C8.5482 50.0077 8.81985 50.4131 9.00534 50.8582L9.46687 50.6659Z" stroke="white" stroke-dasharray="2 2"/>
</svg>
