<svg width="168" height="16" viewBox="0 0 168 16" fill="none" xmlns="http://www.w3.org/2000/svg">
<path d="M7.744 8.448V11.536H13.408C13.5893 11.536 13.68 11.6693 13.68 11.936C13.68 12.4907 13.5093 12.768 13.168 12.768H0.4V11.536H6.336V8.448H7.744ZM6.256 5.792C5.744 6.304 5.168 6.752 4.528 7.136C3.888 7.52 3.152 7.85067 2.32 8.128C2.05333 8.224 1.85067 8.08533 1.712 7.712C1.56267 7.34933 1.62667 7.12 1.904 7.024C3.14133 6.608 4.18667 5.97867 5.04 5.136C5.89333 4.272 6.32 3.34933 6.32 2.368V1.584H7.76V2.368C7.76 3.34933 8.18667 4.272 9.04 5.136C9.88267 5.968 10.9333 6.60267 12.192 7.04C12.448 7.136 12.5067 7.36 12.368 7.712C12.2293 8.08533 12.0267 8.22933 11.76 8.144C10.928 7.86667 10.1867 7.536 9.536 7.152C8.896 6.75733 8.32 6.304 7.808 5.792C7.648 5.632 7.504 5.472 7.376 5.312C7.248 5.14133 7.136 4.97067 7.04 4.8C6.83733 5.13067 6.576 5.46133 6.256 5.792ZM19.4701 1.232C20.0248 1.24267 20.5208 1.32267 20.9581 1.472C21.4061 1.62133 21.7848 1.81867 22.0941 2.064C22.4035 2.32 22.6381 2.61867 22.7981 2.96C22.9581 3.30133 23.0381 3.66933 23.0381 4.064C23.0381 4.46933 22.9581 4.848 22.7981 5.2C22.6381 5.54133 22.4088 5.84 22.1101 6.096C21.8008 6.352 21.4221 6.56 20.9741 6.72C20.5368 6.86933 20.0355 6.94933 19.4701 6.96C18.9261 6.94933 18.4301 6.86933 17.9821 6.72C17.5448 6.57067 17.1715 6.368 16.8621 6.112C16.5421 5.856 16.2968 5.55733 16.1261 5.216C15.9661 4.87467 15.8861 4.50133 15.8861 4.096C15.8861 3.70133 15.9661 3.33333 16.1261 2.992C16.2968 2.64 16.5421 2.336 16.8621 2.08C17.1715 1.824 17.5448 1.62133 17.9821 1.472C18.4301 1.32267 18.9261 1.24267 19.4701 1.232ZM19.4541 5.776C19.7635 5.776 20.0515 5.73333 20.3181 5.648C20.5848 5.56267 20.8195 5.44533 21.0221 5.296C21.2141 5.14667 21.3688 4.96533 21.4861 4.752C21.6035 4.53867 21.6621 4.30933 21.6621 4.064C21.6621 3.82933 21.6035 3.61067 21.4861 3.408C21.3688 3.20533 21.2141 3.02933 21.0221 2.88C20.8195 2.73067 20.5848 2.61333 20.3181 2.528C20.0515 2.44267 19.7635 2.4 19.4541 2.4C18.8035 2.4 18.2755 2.56 17.8701 2.88C17.4648 3.18933 17.2621 3.584 17.2621 4.064C17.2621 4.56533 17.4648 4.976 17.8701 5.296C18.2755 5.616 18.8035 5.776 19.4541 5.776ZM23.3581 5.52H25.1981V1.184H26.6061V9.52C26.6061 10.16 26.5528 10.656 26.4461 11.008C26.3395 11.36 26.1155 11.536 25.7741 11.536H25.5821C25.3261 11.536 25.1981 11.4133 25.1981 11.168V6.704H23.3581V5.52ZM15.2141 7.936H24.1261C24.3181 7.936 24.4141 8.064 24.4141 8.32C24.4141 8.84267 24.2648 9.104 23.9661 9.104H20.2221V10.128C20.2221 10.7787 20.0088 11.104 19.5821 11.104H19.2301C19.0275 11.104 18.9048 11.0773 18.8621 11.024C18.8195 10.9707 18.7981 10.8533 18.7981 10.672V9.104H15.2141V7.936ZM17.5661 11.424H18.9581V13.616C18.9581 13.872 19.0861 14 19.3421 14H26.5421C26.7341 14 26.8301 14.1227 26.8301 14.368C26.8301 14.9013 26.6595 15.168 26.3181 15.168H19.3101C19.0328 15.168 18.7821 15.152 18.5581 15.12C18.3448 15.0987 18.1635 15.0507 18.0141 14.976C17.8648 14.8907 17.7528 14.768 17.6781 14.608C17.6035 14.4587 17.5661 14.256 17.5661 14V11.424ZM35.1963 0.927999C35.9536 0.927999 36.6416 0.997333 37.2603 1.136C37.8789 1.264 38.4069 1.44 38.8443 1.664C39.2709 1.89867 39.5963 2.176 39.8203 2.496C40.0549 2.80533 40.1723 3.136 40.1723 3.488C40.1723 3.84 40.0603 4.176 39.8363 4.496C39.6123 4.816 39.2923 5.09333 38.8763 5.328C38.4496 5.57333 37.9269 5.76533 37.3083 5.904C36.6896 6.04267 35.9856 6.112 35.1963 6.112C34.4389 6.112 33.7509 6.04267 33.1323 5.904C32.5136 5.76533 31.9856 5.57867 31.5483 5.344C31.1109 5.12 30.7749 4.85333 30.5403 4.544C30.3056 4.224 30.1883 3.888 30.1883 3.536C30.1883 3.17333 30.3003 2.83733 30.5243 2.528C30.7589 2.208 31.0949 1.93067 31.5323 1.696C31.9696 1.46133 32.4976 1.27467 33.1163 1.136C33.7349 0.997333 34.4283 0.927999 35.1963 0.927999ZM35.1803 4.944C35.6709 4.944 36.1349 4.90667 36.5723 4.832C37.0096 4.75733 37.3883 4.656 37.7083 4.528C38.0283 4.4 38.2789 4.25067 38.4603 4.08C38.6523 3.89867 38.7483 3.712 38.7483 3.52C38.7483 3.31733 38.6523 3.13067 38.4603 2.96C38.2789 2.77867 38.0283 2.624 37.7083 2.496C37.3883 2.368 37.0096 2.272 36.5723 2.208C36.1349 2.13333 35.6709 2.096 35.1803 2.096C34.6576 2.096 34.1776 2.13333 33.7403 2.208C33.3029 2.272 32.9296 2.368 32.6203 2.496C32.3003 2.624 32.0496 2.77867 31.8683 2.96C31.6976 3.13067 31.6123 3.31733 31.6123 3.52C31.6123 3.712 31.6976 3.89867 31.8683 4.08C32.0496 4.25067 32.3003 4.4 32.6203 4.528C32.9296 4.656 33.3029 4.75733 33.7403 4.832C34.1776 4.90667 34.6576 4.944 35.1803 4.944ZM28.5403 7.12H41.5483C41.7403 7.12 41.8363 7.248 41.8363 7.504C41.8363 8.016 41.6603 8.272 41.3083 8.272H28.5403V7.12ZM30.4603 11.808H38.3003C38.4496 11.808 38.5243 11.6907 38.5243 11.456V10.64H30.4603V9.52H39.3243C39.7189 9.52 39.9163 9.712 39.9163 10.096V10.656C39.9163 11.296 39.8683 11.7707 39.7723 12.08C39.6869 12.3893 39.5696 12.6027 39.4203 12.72C39.2709 12.848 39.0949 12.9067 38.8923 12.896C38.7003 12.8853 38.5029 12.88 38.3003 12.88H31.8683V13.824C31.8683 14.0053 31.9536 14.096 32.1243 14.096H39.8843C40.0656 14.096 40.1563 14.2133 40.1563 14.448C40.1563 14.9707 39.9803 15.232 39.6283 15.232H32.3003C32.0123 15.232 31.7563 15.2213 31.5323 15.2C31.3083 15.1787 31.1163 15.1307 30.9563 15.056C30.7963 14.9707 30.6736 14.848 30.5883 14.688C30.5029 14.5387 30.4603 14.3253 30.4603 14.048V11.808ZM49.2233 1.344H58.6473C58.8179 1.344 58.9033 1.46667 58.9033 1.712C58.9033 2.256 58.7379 2.528 58.4073 2.528H50.6313V4.576C50.6313 4.82133 50.7539 4.944 50.9993 4.944H58.8713C59.0419 4.944 59.1273 5.06667 59.1273 5.312C59.1273 5.84533 58.9619 6.112 58.6313 6.112H51.1753C50.8873 6.112 50.6259 6.10667 50.3913 6.096C50.1566 6.07467 49.9486 6.02667 49.7673 5.952C49.5859 5.87733 49.4473 5.76533 49.3513 5.616C49.2659 5.456 49.2233 5.232 49.2233 4.944V1.344ZM47.4153 7.68H60.4233C60.6153 7.68 60.7113 7.808 60.7113 8.064C60.7113 8.59733 60.5353 8.864 60.1833 8.864H47.4153V7.68ZM54.0713 10.048C54.7966 10.048 55.4526 10.1173 56.0393 10.256C56.6366 10.3947 57.1379 10.5867 57.5433 10.832C57.9486 11.0773 58.2633 11.3653 58.4873 11.696C58.7113 12.0267 58.8233 12.384 58.8233 12.768C58.8233 13.152 58.7166 13.5147 58.5033 13.856C58.2899 14.1867 57.9859 14.48 57.5913 14.736C57.1859 14.992 56.6846 15.1893 56.0873 15.328C55.4899 15.4773 54.8179 15.552 54.0713 15.552C53.3353 15.552 52.6686 15.4773 52.0713 15.328C51.4846 15.1893 50.9886 14.9973 50.5833 14.752C50.1779 14.496 49.8633 14.2027 49.6393 13.872C49.4153 13.5307 49.3033 13.1733 49.3033 12.8C49.3033 12.416 49.4153 12.0587 49.6393 11.728C49.8633 11.3973 50.1779 11.104 50.5833 10.848C50.9886 10.6027 51.4846 10.4107 52.0713 10.272C52.6686 10.1227 53.3353 10.048 54.0713 10.048ZM54.0553 14.4C54.5246 14.4 54.9619 14.3573 55.3673 14.272C55.7833 14.1867 56.1459 14.0747 56.4553 13.936C56.7539 13.7867 56.9886 13.616 57.1593 13.424C57.3406 13.2213 57.4313 13.0133 57.4313 12.8C57.4313 12.576 57.3406 12.368 57.1593 12.176C56.9886 11.984 56.7539 11.8133 56.4553 11.664C56.1459 11.5253 55.7833 11.4133 55.3673 11.328C54.9619 11.2427 54.5246 11.2 54.0553 11.2C53.5646 11.2 53.1113 11.2427 52.6953 11.328C52.2793 11.4133 51.9219 11.5253 51.6233 11.664C51.3246 11.8133 51.0953 11.984 50.9353 12.176C50.7753 12.368 50.6953 12.576 50.6953 12.8C50.6953 13.0133 50.7753 13.2213 50.9353 13.424C51.0953 13.616 51.3246 13.7867 51.6233 13.936C51.9219 14.0747 52.2793 14.1867 52.6953 14.272C53.1113 14.3573 53.5646 14.4 54.0553 14.4ZM63.4134 11.952H71.2694C71.408 11.952 71.4774 11.8453 71.4774 11.632V10.88H63.4134V9.776H67.4454V8.432H61.5094V7.328H74.5174C74.6987 7.328 74.7894 7.44533 74.7894 7.68C74.7894 8.18133 74.6187 8.432 74.2774 8.432H68.8534V9.776H72.2934C72.688 9.776 72.8854 9.968 72.8854 10.352V11.264C72.8854 12.416 72.576 12.992 71.9574 12.992H64.8214V13.856C64.8214 14.0373 64.912 14.128 65.0934 14.128H72.8374C73.0187 14.128 73.1094 14.2453 73.1094 14.48C73.1094 14.9813 72.9387 15.232 72.5974 15.232H64.5974C63.808 15.232 63.4134 14.8373 63.4134 14.048V11.952ZM64.7094 1.232V2.592H71.5734V1.232H72.9814V4.192C72.9814 5.536 72.6454 6.208 71.9734 6.208H64.4854C63.696 6.208 63.3014 5.81333 63.3014 5.024V1.232H64.7094ZM71.2694 5.056C71.472 5.056 71.5734 4.864 71.5734 4.48V3.728H64.7094V4.688C64.7094 4.93333 64.8374 5.056 65.0934 5.056H71.2694ZM79.1555 1.648C79.6035 1.648 80.0088 1.75467 80.3715 1.968C80.7342 2.17067 81.0488 2.45333 81.3155 2.816C81.5715 3.18933 81.7795 3.62133 81.9395 4.112C82.0995 4.60267 82.2115 5.12533 82.2755 5.68H83.7635V1.184H85.1715V12.896C85.1715 13.568 85.1182 14.1013 85.0115 14.496C84.9155 14.8907 84.6915 15.088 84.3395 15.088H84.1475C83.8915 15.088 83.7635 14.9653 83.7635 14.72V6.88H82.3235C82.3022 7.49867 82.2115 8.08533 82.0515 8.64C81.9022 9.19467 81.6942 9.68 81.4275 10.096C81.1608 10.512 80.8355 10.8427 80.4515 11.088C80.0782 11.3227 79.6462 11.44 79.1555 11.44C78.6648 11.44 78.2275 11.312 77.8435 11.056C77.4595 10.8 77.1288 10.448 76.8515 10C76.5635 9.56267 76.3448 9.04533 76.1955 8.448C76.0568 7.85067 75.9875 7.216 75.9875 6.544C75.9875 5.86133 76.0622 5.22667 76.2115 4.64C76.3608 4.04267 76.5742 3.52533 76.8515 3.088C77.1288 2.65067 77.4595 2.304 77.8435 2.048C78.2382 1.792 78.6755 1.65867 79.1555 1.648ZM88.0835 13.904C88.0835 14.8747 87.8115 15.36 87.2675 15.36H87.0595C86.8142 15.36 86.6915 15.2373 86.6915 14.992V1.184H88.0835V13.904ZM79.1555 10.128C79.4115 10.128 79.6462 10.032 79.8595 9.84C80.0728 9.63733 80.2595 9.37067 80.4195 9.04C80.5795 8.70933 80.7022 8.32533 80.7875 7.888C80.8835 7.45067 80.9315 6.992 80.9315 6.512C80.9315 6.01067 80.8835 5.54133 80.7875 5.104C80.6915 4.66667 80.5635 4.288 80.4035 3.968C80.2435 3.648 80.0515 3.39733 79.8275 3.216C79.6142 3.024 79.3902 2.928 79.1555 2.928C78.8995 2.928 78.6595 3.01867 78.4355 3.2C78.2222 3.38133 78.0408 3.62667 77.8915 3.936C77.7315 4.256 77.6035 4.63467 77.5075 5.072C77.4222 5.49867 77.3795 5.95733 77.3795 6.448C77.3795 6.93867 77.4168 7.408 77.4915 7.856C77.5768 8.304 77.6942 8.69333 77.8435 9.024C77.9928 9.36533 78.1795 9.63733 78.4035 9.84C78.6275 10.032 78.8782 10.128 79.1555 10.128ZM95.6465 1.744H102.015C102.196 1.744 102.286 1.86667 102.286 2.112C102.286 2.64533 102.116 2.912 101.775 2.912H97.0545V6.048C97.0545 6.29333 97.1772 6.416 97.4225 6.416H103.359C103.54 6.416 103.631 6.544 103.631 6.8C103.631 7.33333 103.46 7.6 103.119 7.6H96.8305C96.0412 7.6 95.6465 7.20533 95.6465 6.416V1.744ZM106.207 6.864C106.207 7.83467 105.935 8.32 105.391 8.32H105.167C104.921 8.32 104.799 8.19733 104.799 7.952V1.184H106.207V3.952H108.223C108.404 3.952 108.495 4.08 108.495 4.336C108.495 4.86933 108.329 5.136 107.999 5.136H106.207V6.864ZM97.4065 11.584H104.607C104.735 11.584 104.799 11.4667 104.799 11.232V10.288H97.4065V9.152H105.631C106.015 9.152 106.207 9.344 106.207 9.728V10.896C106.207 12.112 105.903 12.72 105.295 12.72H98.8145V13.808C98.8145 13.9893 98.9052 14.08 99.0865 14.08H106.159C106.34 14.08 106.431 14.2027 106.431 14.448C106.431 14.9707 106.26 15.232 105.919 15.232H98.6065C97.8065 15.232 97.4065 14.8373 97.4065 14.048V11.584ZM112.989 1.648C113.522 1.65867 114.002 1.792 114.429 2.048C114.866 2.29333 115.234 2.62933 115.533 3.056C115.831 3.49333 116.061 4.00533 116.221 4.592C116.381 5.168 116.461 5.792 116.461 6.464C116.461 7.14667 116.381 7.78667 116.221 8.384C116.071 8.98133 115.847 9.504 115.549 9.952C115.25 10.4 114.882 10.752 114.445 11.008C114.018 11.264 113.533 11.392 112.989 11.392C112.455 11.392 111.97 11.264 111.533 11.008C111.095 10.752 110.727 10.4053 110.429 9.968C110.119 9.53067 109.879 9.01333 109.709 8.416C109.549 7.81867 109.469 7.184 109.469 6.512C109.469 5.82933 109.549 5.19467 109.709 4.608C109.879 4.02133 110.119 3.50933 110.429 3.072C110.727 2.64533 111.095 2.304 111.533 2.048C111.97 1.792 112.455 1.65867 112.989 1.648ZM112.973 10.144C113.271 10.144 113.543 10.048 113.789 9.856C114.045 9.65333 114.269 9.38133 114.461 9.04C114.653 8.70933 114.802 8.32533 114.909 7.888C115.015 7.44 115.069 6.97067 115.069 6.48C115.069 5.97867 115.01 5.50933 114.893 5.072C114.786 4.63467 114.642 4.25067 114.461 3.92C114.269 3.58933 114.045 3.33333 113.789 3.152C113.533 2.96 113.266 2.864 112.989 2.864C112.679 2.864 112.391 2.96 112.125 3.152C111.869 3.33333 111.65 3.584 111.469 3.904C111.287 4.224 111.143 4.608 111.037 5.056C110.93 5.49333 110.877 5.968 110.877 6.48C110.877 6.98133 110.925 7.456 111.021 7.904C111.127 8.34133 111.271 8.72533 111.453 9.056C111.623 9.39733 111.837 9.664 112.093 9.856C112.349 10.048 112.642 10.144 112.973 10.144ZM120.285 13.904C120.285 14.8747 120.007 15.36 119.453 15.36H119.261C119.005 15.36 118.877 15.2373 118.877 14.992V1.184H120.285V5.696H122.301C122.482 5.696 122.573 5.82933 122.573 6.096C122.573 6.65067 122.402 6.928 122.061 6.928H120.285V13.904ZM125.963 1.744V3.968H132.555V1.744H133.963V6.608C133.963 7.952 133.627 8.624 132.955 8.624H125.723C124.944 8.624 124.555 8.23467 124.555 7.456V1.744H125.963ZM132.251 7.456C132.453 7.456 132.555 7.24267 132.555 6.816V5.136H125.963V7.072C125.963 7.328 126.085 7.456 126.331 7.456H132.251ZM129.963 9.232V11.632H135.627C135.808 11.632 135.899 11.76 135.899 12.016C135.899 12.5707 135.728 12.848 135.387 12.848H122.619V11.632H128.555V9.232H129.963ZM137.593 11.136C137.508 11.1893 137.428 11.216 137.353 11.216C137.289 11.216 137.22 11.1947 137.145 11.152C137.07 11.0987 137.001 11.0347 136.937 10.96C136.873 10.896 136.814 10.8213 136.761 10.736C136.718 10.6507 136.697 10.5707 136.697 10.496C136.697 10.368 136.761 10.256 136.889 10.16C137.028 10.064 137.156 9.95733 137.273 9.84C138.084 9.09333 138.676 8.23467 139.049 7.264C139.422 6.28267 139.609 5.13067 139.609 3.808V1.744H141.033V3.808C141.033 4.512 141.086 5.16267 141.193 5.76C141.3 6.34667 141.465 6.896 141.689 7.408C141.913 7.92 142.201 8.4 142.553 8.848C142.905 9.296 143.337 9.728 143.849 10.144C143.945 10.2293 143.993 10.3253 143.993 10.432C143.993 10.5067 143.966 10.5867 143.913 10.672C143.87 10.7573 143.817 10.8373 143.753 10.912C143.678 10.9867 143.598 11.0507 143.513 11.104C143.438 11.1467 143.374 11.168 143.321 11.168C143.257 11.168 143.182 11.1413 143.097 11.088C142.5 10.64 141.95 10.1333 141.449 9.568C140.948 9.00267 140.569 8.384 140.313 7.712C140.046 8.40533 139.678 9.04 139.209 9.616C138.75 10.1813 138.212 10.688 137.593 11.136ZM142.873 5.344H144.889V1.184H146.297V13.632C146.297 14.6027 146.014 15.088 145.449 15.088H145.273C145.017 15.088 144.889 14.9653 144.889 14.72V6.544H142.873V5.344ZM149.209 13.904C149.209 14.8747 148.932 15.36 148.377 15.36H148.185C147.929 15.36 147.801 15.2373 147.801 14.992V1.184H149.209V13.904ZM155.703 8.592V11.536H159.111V8.592H160.519V11.536H163.767C163.959 11.536 164.055 11.6693 164.055 11.936C164.055 12.4907 163.879 12.768 163.527 12.768H150.759V11.536H154.295V8.592H155.703ZM157.415 1.456C158.151 1.456 158.818 1.54667 159.415 1.728C160.012 1.89867 160.519 2.13333 160.935 2.432C161.34 2.74133 161.655 3.104 161.879 3.52C162.103 3.92533 162.215 4.368 162.215 4.848C162.215 5.328 162.108 5.78133 161.895 6.208C161.682 6.624 161.372 6.98667 160.967 7.296C160.562 7.616 160.06 7.872 159.463 8.064C158.866 8.24533 158.183 8.336 157.415 8.336C156.679 8.336 156.012 8.25067 155.415 8.08C154.818 7.89867 154.311 7.65333 153.895 7.344C153.479 7.03467 153.154 6.672 152.919 6.256C152.695 5.84 152.583 5.39733 152.583 4.928C152.583 4.448 152.695 3.99467 152.919 3.568C153.143 3.14133 153.463 2.77333 153.879 2.464C154.295 2.15467 154.802 1.90933 155.399 1.728C155.996 1.54667 156.668 1.456 157.415 1.456ZM157.399 7.184C157.868 7.184 158.311 7.12533 158.727 7.008C159.143 6.88 159.506 6.70933 159.815 6.496C160.124 6.29333 160.364 6.05333 160.535 5.776C160.706 5.49867 160.791 5.20533 160.791 4.896C160.791 4.576 160.7 4.27733 160.519 4C160.338 3.72267 160.098 3.47733 159.799 3.264C159.5 3.06133 159.143 2.90133 158.727 2.784C158.311 2.66667 157.868 2.608 157.399 2.608C156.898 2.608 156.439 2.66667 156.023 2.784C155.607 2.90133 155.25 3.06133 154.951 3.264C154.652 3.47733 154.418 3.72267 154.247 4C154.087 4.27733 154.007 4.576 154.007 4.896C154.007 5.20533 154.087 5.49867 154.247 5.776C154.418 6.05333 154.652 6.29333 154.951 6.496C155.25 6.70933 155.607 6.88 156.023 7.008C156.439 7.12533 156.898 7.184 157.399 7.184ZM166.133 10.096L165.973 1.52H167.477L167.301 9.504C167.29 9.89867 167.136 10.096 166.837 10.096H166.133ZM166.709 11.744C167.018 11.7653 167.258 11.872 167.429 12.064C167.6 12.256 167.685 12.5067 167.685 12.816C167.685 13.1147 167.584 13.3707 167.381 13.584C167.189 13.7973 166.97 13.904 166.725 13.904C166.576 13.904 166.437 13.872 166.309 13.808C166.192 13.7333 166.09 13.648 166.005 13.552C165.92 13.4453 165.856 13.328 165.813 13.2C165.77 13.072 165.749 12.944 165.749 12.816C165.749 12.5493 165.84 12.304 166.021 12.08C166.202 11.856 166.432 11.744 166.709 11.744Z" fill="white"/>
</svg>
