<svg width="24" height="24" viewBox="0 0 24 24" fill="none" xmlns="http://www.w3.org/2000/svg">
<path fill-rule="evenodd" clip-rule="evenodd" d="M9.39467 13.8946C11.8799 13.8946 13.8946 11.8799 13.8946 9.39467C13.8946 6.90942 11.8799 4.89472 9.39467 4.89472C6.90942 4.89472 4.89472 6.90942 4.89472 9.39467C4.89472 11.8799 6.90942 13.8946 9.39467 13.8946ZM9.39467 15.7893C12.9264 15.7893 15.7893 12.9264 15.7893 9.39467C15.7893 5.86299 12.9264 3 9.39467 3C5.86299 3 3 5.86299 3 9.39467C3 12.9264 5.86299 15.7893 9.39467 15.7893Z" fill="#744A21"/>
<path fill-rule="evenodd" clip-rule="evenodd" d="M13.4147 13.4142C13.7846 13.0442 14.3845 13.0442 14.7544 13.4142L20.7228 19.3826C21.0928 19.7525 21.0928 20.3524 20.7228 20.7223C20.3528 21.0923 19.753 21.0923 19.383 20.7223L13.4147 14.754C13.0447 14.384 13.0447 13.7842 13.4147 13.4142Z" fill="#744A21"/>
</svg>
